<svg width="137" height="130" viewBox="0 0 137 130" fill="none" xmlns="http://www.w3.org/2000/svg">
<path fill-rule="evenodd" clip-rule="evenodd" d="M68.3092 129.286C67.6121 129.424 66.889 129.469 66.1564 129.414C43.5183 127.696 22.0911 115.192 9.88281 94.0462C-2.32565 72.9005 -2.44097 48.0913 7.39099 27.6272C8.8184 24.6562 11.9127 22.8697 15.1994 23.1191C23.6355 23.7592 31.9035 25.8972 39.589 29.4222C45.3881 18.1146 53.968 8.46843 64.4258 1.38618C67.155 -0.46206 70.7246 -0.462061 73.4537 1.38618C83.7696 8.37227 92.2581 17.8532 98.0529 28.9625C105.447 25.711 113.356 23.7308 121.419 23.1191C124.706 22.8697 127.8 24.6562 129.227 27.6272C139.059 48.0913 138.944 72.9005 126.736 94.0462C114.527 115.192 93.1001 127.696 70.462 129.414C69.7294 129.469 69.0064 129.424 68.3092 129.286ZM84.8955 116.468C98.4649 111.853 110.467 102.487 118.189 89.112C128.468 71.3084 128.803 50.4896 120.879 33.0702C114.373 33.7015 108.004 35.3656 102.03 37.993C104.944 46.0099 106.534 54.6629 106.534 63.6873C106.534 84.2544 98.2764 102.893 84.8955 116.468ZM89.3162 33.5512C84.475 24.2572 77.4615 16.2706 68.9398 10.2616C60.2356 16.3993 53.1049 24.6002 48.2554 34.1502C55.9738 39.0861 62.8307 45.579 68.3092 53.4905C74.0122 45.2549 81.2089 38.5563 89.3162 33.5512ZM73.9004 63.0618C78.8588 54.6036 85.5375 47.769 93.2392 42.7484C95.4618 49.3222 96.666 56.3643 96.666 63.6873C96.666 80.5934 90.2483 96.0023 79.6969 107.609C82.5518 92.9473 80.825 77.3314 73.9004 63.0618ZM62.7181 63.0618C57.9826 54.984 51.6781 48.387 44.4119 43.4367C42.3354 49.8129 41.2136 56.6193 41.2136 63.6873C41.2136 79.7264 46.99 94.418 56.5923 105.794C54.2176 91.6639 56.0784 76.744 62.7181 63.0618ZM68.3092 112.432C72.0137 100.652 72.166 87.8002 68.3092 75.617C64.4524 87.8002 64.6047 100.652 68.3092 112.432ZM18.429 89.112C26.502 103.095 39.2528 112.695 53.5816 117.067C39.8494 103.444 31.3453 84.5588 31.3453 63.6873C31.3453 54.8464 32.8712 46.3619 35.6739 38.4827C29.3875 35.5717 22.6411 33.7398 15.739 33.0702C7.81536 50.4896 8.15005 71.3084 18.429 89.112Z" fill="#EF898B"/>
</svg>
